# Blender 4.5.3 LTS
# www.blender.org
mtllib original-30.mtl
o BP3a_1_2/BP3a_1/mesh22/mesh22-geometry#mesh22-geometry
v 0.463294 -0.096510 0.617554
v 0.463294 -0.092396 0.630217
v 0.463294 -0.099053 0.625380
v 0.463294 -0.088281 0.617554
v 0.460428 -0.092396 0.634679
v 0.460428 -0.099133 0.613944
v 0.460428 -0.085658 0.613944
v 0.463294 -0.085738 0.625380
v 0.460428 -0.103297 0.626759
v 0.371597 -0.092396 0.634679
v 0.460428 -0.081494 0.626759
v 0.422580 -0.099133 0.613944
v 0.427475 -0.092396 0.613944
v 0.371597 -0.103297 0.626759
v 0.371597 -0.081494 0.626759
v 0.420544 -0.101934 0.622565
v 0.422580 -0.085658 0.613944
v 0.420544 -0.082857 0.622565
v 0.427475 -0.092396 0.568772
v 0.371597 -0.099133 0.613944
v 0.411923 -0.085658 0.613944
v 0.420544 -0.101934 0.568772
v 0.420544 -0.082857 0.568772
v 0.411923 -0.099133 0.613944
v 0.371597 -0.085658 0.613944
v 0.409331 -0.086500 0.568772
v 0.409331 -0.098291 0.568772
v 0.409331 -0.098291 0.613944
v 0.409331 -0.086500 0.613944
v 0.409331 -0.092396 0.568772
v 0.427475 -0.092396 0.568772
v 0.420544 -0.101934 0.568772
v 0.420544 -0.082857 0.568772
v 0.409331 -0.086500 0.568772
v 0.409331 -0.098291 0.568772
v 0.409331 -0.092396 0.568772
v 0.427475 -0.092396 0.326358
v 0.420544 -0.101934 0.326358
v 0.420544 -0.082857 0.326358
v 0.409331 -0.086500 0.326358
v 0.409331 -0.098291 0.326358
v 0.409331 -0.092396 0.326358
vn 0.9869 -0.0863 0.1366
vn 0.9232 -0.3688 0.1082
vn 0.9187 -0.2096 -0.3348
vn 0.9879 0.0895 0.1269
vn 0.4841 -0.0001 0.8750
vn 0.4852 -0.4832 -0.7288
vn 0.4841 0.5143 -0.7079
vn 0.9187 -0.0272 0.3941
vn 0.4849 -0.8318 0.2702
vn 0.6990 0.5010 -0.5102
vn 0.6990 -0.7111 0.0750
vn 0.6991 -0.6800 0.2210
vn -0.8415 -0.2818 0.4610
vn -0.6679 0.1772 0.7229
vn 0.5314 0.1608 0.8317
vn 0.4849 0.8317 0.2703
vn 0.5311 -0.7414 0.4102
vn 0.8917 -0.4488 0.0586
vn 0.9163 -0.2753 -0.2907
vn 0.6990 -0.0188 0.7148
vn 0.6607 0.0466 -0.7492
vn 0.9073 0.2491 -0.3388
vn -0.0000 -0.9511 0.3090
vn -0.0000 0.9511 0.3090
vn 0.6992 0.6800 0.2209
vn -0.5191 0.7740 0.3626
vn 0.6993 -0.0000 0.7149
vn 0.9123 0.3644 0.1872
vn 0.0271 -0.8579 -0.5131
vn 0.5332 0.6576 -0.5322
vn -0.0150 0.8905 -0.4548
vn -0.0000 -0.9510 0.3092
vn 0.9965 0.0823 0.0128
vn 0.7919 -0.0000 -0.6106
vn -0.0000 -0.5877 -0.8091
vn -0.4751 0.8765 -0.0779
vn 0.3089 -0.9511 -0.0000
vn 0.8090 0.5878 -0.0000
vn 1.0000 -0.0001 -0.0000
vn 0.3089 0.9511 -0.0000
vn 0.3090 0.9511 -0.0000
vn -0.1501 -0.9796 0.1334
vn -0.4598 0.3106 -0.8319
vn 0.0163 -0.9989 0.0433
vn -0.0001 0.9510 0.3092
vn -0.0000 0.5877 -0.8091
vn -0.8091 0.5876 -0.0014
vn 0.3091 -0.9510 -0.0000
vn -0.8091 -0.5877 0.0002
vn -0.8091 0.5877 -0.0000
vn 0.3091 0.9510 -0.0000
vn -0.1575 -0.3939 -0.9055
vn -0.8100 -0.1994 -0.5515
vn -0.0747 0.0567 -0.9956
vn 0.4881 0.3276 -0.8090
vn -1.0000 -0.0000 -0.0000
vn -0.8090 0.5878 -0.0001
vn -0.8090 0.5878 -0.0000
vn -0.5725 0.0789 -0.8161
vn -0.8090 -0.5878 -0.0000
vn -0.3090 -0.9511 -0.0000
vn 1.0000 -0.0000 -0.0000
vn 0.8090 -0.5879 -0.0000
vn -0.3090 0.9511 -0.0000
s 1
usemtl material_0_0.049
f 1//1 2//2 3//3
f 2//2 1//1 4//4
f 5//5 3//3 2//2
f 3//3 6//6 1//1
f 1//1 7//7 4//4
f 2//2 4//4 8//8
f 3//3 5//5 9//9
f 8//8 5//5 2//2
f 6//6 3//3 9//9
f 7//7 1//1 6//6
f 7//7 8//8 4//4
f 6//10 5//11 9//12
f 5//13 10//14 9//15
f 5//5 8//8 11//16
f 9//17 12//18 6//19
f 7//20 5//11 6//10
f 6//19 13//21 7//22
f 8//8 7//7 11//16
f 9//15 10//14 14//23
f 5//13 15//24 10//14
f 5//11 7//20 11//25
f 15//26 5//27 11//28
f 12//18 9//17 16//29
f 13//21 6//19 12//18
f 7//22 13//21 17//30
f 7//22 18//31 11//28
f 16//29 9//17 14//32
f 18//31 15//26 11//28
f 12//18 16//29 19//33
f 12//18 19//33 13//21
f 19//34 17//30 13//21
f 18//31 7//22 17//30
f 20//35 16//29 14//32
f 21//36 15//26 18//31
f 19//33 16//29 22//37
f 17//38 19//39 23//40
f 17//30 23//41 18//31
f 16//42 20//43 24//44
f 15//45 21//46 25//46
f 18//31 26//47 21//36
f 16//48 27//49 22//48
f 26//50 18//51 23//51
f 20//43 28//52 24//44
f 27//53 16//42 24//44
f 29//54 25//55 21//36
f 21//36 26//47 29//54
f 28//52 20//43 29//54
f 28//52 27//53 24//44
f 20//43 25//55 29//54
f 30//56 29//57 26//58
f 29//59 27//53 28//52
f 27//60 29//57 30//56
f 34//56 40//56 42//56 36//56
f 32//61 35//61 41//61 38//61
f 31//62 32//63 38//63 37//62
f 35//56 36//56 42//56 41//56
f 33//64 39//64 40//64 34//64
f 31//62 37//62 39//38 33//38
