# Blender 4.5.3 LTS
# www.blender.org
mtllib original-46.mtl
o BP3a_1_2/BP3a_1/mesh22/mesh22-geometry#mesh22-geometry
v 0.463294 0.595865 0.617554
v 0.463294 0.599979 0.630217
v 0.463294 0.593322 0.625380
v 0.463294 0.604094 0.617554
v 0.460428 0.599979 0.634679
v 0.460428 0.593242 0.613944
v 0.460428 0.606717 0.613944
v 0.463294 0.606637 0.625380
v 0.460428 0.589078 0.626759
v 0.371597 0.599979 0.634679
v 0.460428 0.610881 0.626759
v 0.422580 0.593242 0.613944
v 0.427475 0.599979 0.613944
v 0.371597 0.589078 0.626759
v 0.371597 0.610881 0.626759
v 0.420544 0.590441 0.622565
v 0.422580 0.606717 0.613944
v 0.420544 0.609518 0.622565
v 0.427475 0.599979 0.568772
v 0.371597 0.593242 0.613944
v 0.411923 0.606717 0.613944
v 0.420544 0.590441 0.568772
v 0.420544 0.609518 0.568772
v 0.411923 0.593242 0.613944
v 0.371597 0.606717 0.613944
v 0.409331 0.605875 0.568772
v 0.409331 0.594084 0.568772
v 0.409331 0.594084 0.613944
v 0.409331 0.605875 0.613944
v 0.409331 0.599979 0.568772
v 0.427475 0.599979 0.568772
v 0.420544 0.590441 0.568772
v 0.420544 0.609518 0.568772
v 0.409331 0.605875 0.568772
v 0.409331 0.594084 0.568772
v 0.409331 0.599979 0.568772
v 0.427475 0.599979 0.326358
v 0.420544 0.590441 0.326358
v 0.420544 0.609518 0.326358
v 0.409331 0.605875 0.326358
v 0.409331 0.594084 0.326358
v 0.409331 0.599979 0.326358
vn 0.9869 -0.0863 0.1366
vn 0.9232 -0.3688 0.1082
vn 0.9187 -0.2096 -0.3348
vn 0.9879 0.0895 0.1269
vn 0.4841 -0.0001 0.8750
vn 0.4852 -0.4832 -0.7288
vn 0.4841 0.5143 -0.7079
vn 0.9187 -0.0272 0.3941
vn 0.4849 -0.8318 0.2702
vn 0.6991 0.5010 -0.5102
vn 0.6991 -0.7111 0.0750
vn 0.6991 -0.6800 0.2210
vn -0.8415 -0.2818 0.4610
vn -0.6679 0.1772 0.7229
vn 0.5314 0.1608 0.8317
vn 0.4849 0.8317 0.2703
vn 0.5311 -0.7414 0.4102
vn 0.8917 -0.4488 0.0586
vn 0.9164 -0.2753 -0.2907
vn 0.6991 -0.0188 0.7148
vn 0.6607 0.0466 -0.7492
vn 0.9073 0.2491 -0.3388
vn -0.0000 -0.9511 0.3090
vn -0.0000 0.9511 0.3090
vn 0.6992 0.6800 0.2209
vn -0.5191 0.7740 0.3626
vn 0.6993 -0.0000 0.7149
vn 0.9123 0.3643 0.1872
vn 0.0271 -0.8579 -0.5131
vn 0.5332 0.6576 -0.5322
vn -0.0150 0.8905 -0.4548
vn -0.0000 -0.9510 0.3092
vn 0.9965 0.0823 0.0128
vn 0.7919 -0.0000 -0.6106
vn -0.0000 -0.5877 -0.8091
vn -0.4751 0.8765 -0.0779
vn 0.3089 -0.9511 -0.0000
vn 0.8090 0.5878 -0.0000
vn 1.0000 -0.0001 -0.0000
vn 0.3089 0.9511 -0.0000
vn 0.3090 0.9511 -0.0000
vn -0.1501 -0.9796 0.1334
vn -0.4598 0.3106 -0.8319
vn 0.0164 -0.9989 0.0433
vn -0.0001 0.9510 0.3092
vn -0.0000 0.5877 -0.8091
vn -0.8091 0.5876 -0.0014
vn 0.3091 -0.9510 -0.0000
vn -0.8091 -0.5877 0.0002
vn -0.8091 0.5877 -0.0000
vn 0.3091 0.9510 -0.0000
vn -0.1575 -0.3939 -0.9055
vn -0.8100 -0.1994 -0.5515
vn -0.0747 0.0567 -0.9956
vn 0.4881 0.3276 -0.8090
vn -1.0000 -0.0000 -0.0000
vn -0.8090 0.5878 -0.0001
vn -0.8090 0.5878 -0.0000
vn -0.5725 0.0789 -0.8161
vn -0.8090 -0.5878 -0.0000
vn -0.3090 -0.9511 -0.0000
vn 1.0000 -0.0000 -0.0000
vn 0.8090 -0.5879 -0.0000
vn -0.3090 0.9511 -0.0000
s 1
usemtl material_0_0.036
f 1//1 2//2 3//3
f 2//2 1//1 4//4
f 5//5 3//3 2//2
f 3//3 6//6 1//1
f 1//1 7//7 4//4
f 2//2 4//4 8//8
f 3//3 5//5 9//9
f 8//8 5//5 2//2
f 6//6 3//3 9//9
f 7//7 1//1 6//6
f 7//7 8//8 4//4
f 6//10 5//11 9//12
f 5//13 10//14 9//15
f 5//5 8//8 11//16
f 9//17 12//18 6//19
f 7//20 5//11 6//10
f 6//19 13//21 7//22
f 8//8 7//7 11//16
f 9//15 10//14 14//23
f 5//13 15//24 10//14
f 5//11 7//20 11//25
f 15//26 5//27 11//28
f 12//18 9//17 16//29
f 13//21 6//19 12//18
f 7//22 13//21 17//30
f 7//22 18//31 11//28
f 16//29 9//17 14//32
f 18//31 15//26 11//28
f 12//18 16//29 19//33
f 12//18 19//33 13//21
f 19//34 17//30 13//21
f 18//31 7//22 17//30
f 20//35 16//29 14//32
f 21//36 15//26 18//31
f 19//33 16//29 22//37
f 17//38 19//39 23//40
f 17//30 23//41 18//31
f 16//42 20//43 24//44
f 15//45 21//46 25//46
f 18//31 26//47 21//36
f 16//48 27//49 22//48
f 26//50 18//51 23//51
f 20//43 28//52 24//44
f 27//53 16//42 24//44
f 29//54 25//55 21//36
f 21//36 26//47 29//54
f 28//52 20//43 29//54
f 28//52 27//53 24//44
f 20//43 25//55 29//54
f 30//56 29//57 26//58
f 29//59 27//53 28//52
f 27//60 29//57 30//56
f 34//56 40//56 42//56 36//56
f 32//61 35//61 41//61 38//61
f 31//62 32//63 38//63 37//62
f 35//56 36//56 42//56 41//56
f 33//64 39//64 40//64 34//64
f 31//62 37//62 39//38 33//38
o BP3a_1_2/BP3a_1/mesh22/mesh22-geometry#mesh22-geometry.001
v 0.463294 0.595865 0.617554
v 0.463294 0.599979 0.630217
v 0.463294 0.593322 0.625380
v 0.463294 0.604094 0.617554
v 0.460428 0.599979 0.634679
v 0.460428 0.593242 0.613944
v 0.460428 0.606717 0.613944
v 0.463294 0.606637 0.625380
v 0.460428 0.589078 0.626759
v 0.371597 0.599979 0.634679
v 0.460428 0.610881 0.626759
v 0.422580 0.593242 0.613944
v 0.427475 0.599979 0.613944
v 0.371597 0.589078 0.626759
v 0.371597 0.610881 0.626759
v 0.420544 0.590441 0.622565
v 0.422580 0.606717 0.613944
v 0.420544 0.609518 0.622565
v 0.427475 0.599979 0.568772
v 0.371597 0.593242 0.613944
v 0.411923 0.606717 0.613944
v 0.420544 0.590441 0.568772
v 0.420544 0.609518 0.568772
v 0.411923 0.593242 0.613944
v 0.371597 0.606717 0.613944
v 0.409331 0.605875 0.568772
v 0.409331 0.594084 0.568772
v 0.409331 0.594084 0.613944
v 0.409331 0.605875 0.613944
v 0.409331 0.599979 0.568772
v 0.427475 0.599979 0.568772
v 0.420544 0.590441 0.568772
v 0.420544 0.609518 0.568772
v 0.409331 0.605875 0.568772
v 0.409331 0.594084 0.568772
v 0.409331 0.599979 0.568772
v 0.427475 0.599979 0.326358
v 0.420544 0.590441 0.326358
v 0.420544 0.609518 0.326358
v 0.409331 0.605875 0.326358
v 0.409331 0.594084 0.326358
v 0.409331 0.599979 0.326358
vn 0.9869 -0.0863 0.1366
vn 0.9232 -0.3688 0.1082
vn 0.9187 -0.2096 -0.3348
vn 0.9879 0.0895 0.1269
vn 0.4841 -0.0001 0.8750
vn 0.4852 -0.4832 -0.7288
vn 0.4841 0.5143 -0.7079
vn 0.9187 -0.0272 0.3941
vn 0.4849 -0.8318 0.2702
vn 0.6991 -0.4202 -0.5785
vn 0.6991 -0.0000 0.7150
vn 0.6991 -0.6800 0.2210
vn -0.6992 -0.0000 -0.7149
vn -0.6993 0.6798 -0.2210
vn -0.0000 -0.0001 -1.0000
vn 0.4849 0.8317 0.2703
vn 0.5311 -0.7414 0.4102
vn -0.0334 -0.7281 -0.6846
vn 0.9164 -0.2753 -0.2907
vn -0.6991 -0.4202 0.5785
vn -0.6990 0.4202 0.5786
vn -0.6991 0.0001 -0.7150
vn 0.6607 0.0466 -0.7492
vn 0.9073 0.2491 -0.3388
vn 0.6993 -0.6799 0.2210
vn -0.0000 0.0001 1.0000
vn -0.0000 -0.9511 0.3090
vn 0.6993 -0.0001 0.7148
vn -0.0000 0.9511 0.3090
vn -0.0000 -0.0001 1.0000
vn 0.6991 -0.0001 0.7150
vn 0.6990 0.4203 -0.5785
vn 0.6992 0.6800 0.2209
vn -0.5191 0.7740 0.3626
vn 0.6993 -0.0000 0.7149
vn 0.9123 0.3643 0.1872
vn -0.0334 -0.7282 -0.6846
vn -0.0000 -0.9510 -0.3090
vn 0.5332 0.6576 -0.5322
vn -0.0150 0.8905 -0.4548
vn -0.0000 -0.9510 0.3092
vn -0.8091 0.5877 -0.0000
vn -1.0000 -0.0001 -0.0000
vn -0.3089 0.9511 -0.0000
vn 0.7919 0.0001 -0.6106
vn 0.7919 -0.0000 -0.6106
vn -0.0000 -0.5877 -0.8091
vn -0.4751 0.8765 -0.0779
vn 1.0000 0.0001 -0.0000
vn 0.3089 -0.9511 -0.0000
vn 0.8090 0.5878 -0.0000
vn 1.0000 -0.0001 -0.0000
vn 0.3089 0.9511 -0.0000
vn 0.3090 0.9511 -0.0000
vn -0.1501 -0.9796 0.1334
vn -0.5184 -0.6225 -0.5863
vn 0.0164 -0.9989 0.0433
vn -0.0001 0.9510 0.3092
vn -0.0000 0.5877 -0.8091
vn -0.8091 0.5876 -0.0014
vn 0.3091 -0.9510 -0.0000
vn -0.8091 -0.5877 0.0002
vn 0.3091 0.9510 -0.0000
vn -0.1575 -0.3939 -0.9055
vn -0.8100 -0.1994 -0.5515
vn -0.3347 0.3234 -0.8851
vn -0.0000 0.5878 -0.8090
vn -0.5725 0.0788 -0.8161
vn -0.0000 0.5878 0.8090
vn -0.0000 -0.0000 1.0000
vn -0.0000 -0.5878 0.8090
vn -1.0000 -0.0000 -0.0000
vn -0.8090 0.5878 -0.0001
vn -0.8090 0.5878 -0.0000
vn -0.5725 0.0789 -0.8161
vn -0.8090 -0.5878 -0.0000
vn 1.0000 -0.0000 -0.0000
vn -0.3090 -0.9511 -0.0000
vn 0.8090 -0.5879 -0.0000
vn 0.3090 -0.9511 -0.0000
s 1
usemtl material_0_0.039
f 43//65 44//66 45//67
f 44//66 43//65 46//68
f 47//69 45//67 44//66
f 45//67 48//70 43//65
f 43//65 49//71 46//68
f 44//66 46//68 50//72
f 45//67 47//69 51//73
f 50//72 47//69 44//66
f 48//70 45//67 51//73
f 49//71 43//65 48//70
f 49//71 50//72 46//68
f 48//74 47//75 51//76
f 47//77 51//78 52//79
f 47//69 50//72 53//80
f 51//81 54//82 48//83
f 49//84 48//85 47//86
f 48//83 55//87 49//88
f 50//72 49//71 53//80
f 51//89 52//90 56//91
f 47//92 57//93 52//94
f 47//95 49//96 53//97
f 57//98 47//99 53//100
f 54//101 51//81 58//102
f 55//87 48//83 54//82
f 49//88 55//87 59//103
f 49//88 60//104 53//100
f 58//102 51//81 56//105
f 60//104 57//98 53//100
f 54//106 61//107 58//108
f 54//82 61//109 55//87
f 61//110 59//103 55//87
f 60//104 49//88 59//103
f 62//111 58//102 56//105
f 63//112 57//98 60//104
f 61//113 58//114 64//114
f 59//115 61//116 65//117
f 59//103 65//118 60//104
f 58//119 62//120 66//121
f 57//122 63//123 67//123
f 60//104 68//124 63//112
f 58//125 69//126 64//125
f 68//106 60//127 65//127
f 62//120 70//128 66//121
f 69//129 58//119 66//121
f 71//130 67//131 63//112
f 63//112 68//124 71//130
f 70//128 62//120 71//132
f 70//128 69//129 66//121
f 62//133 71//134 67//135
f 72//136 71//137 68//138
f 71//139 69//129 70//128
f 69//140 71//137 72//136
f 76//141 78//141 84//141 82//141
f 74//142 77//142 83//142 80//142
f 73//143 74//143 80//143 79//143
f 77//136 78//136 84//136 83//136
f 75//144 76//144 82//144 81//144
f 73//140 75//140 81//140 79//140
