# Blender 4.5.3 LTS
# www.blender.org
mtllib original-31.mtl
o BP1a_1_2/BP1a_1/mesh21/mesh21-geometry#mesh21-geometry
v -0.495887 -0.092396 0.634679
v -0.495887 -0.099133 0.613944
v -0.495887 -0.103297 0.626759
v -0.495887 -0.085658 0.613944
v -0.456003 -0.101934 0.622565
v -0.498752 -0.099055 0.625381
v -0.407055 -0.103297 0.626759
v -0.495887 -0.081494 0.626759
v -0.458038 -0.085658 0.613944
v -0.498752 -0.096511 0.617552
v -0.458038 -0.099133 0.613944
v -0.407055 -0.092396 0.634679
v -0.498752 -0.092396 0.630219
v -0.498752 -0.085736 0.625381
v -0.462933 -0.092396 0.613944
v -0.498752 -0.088280 0.617552
v -0.462933 -0.092396 0.568772
v -0.447382 -0.099133 0.613944
v -0.407055 -0.081494 0.626759
v -0.456003 -0.082857 0.622565
v -0.456003 -0.101934 0.568772
v -0.407055 -0.099133 0.613944
v -0.456003 -0.082857 0.568772
v -0.444790 -0.098291 0.613944
v -0.407055 -0.085658 0.613944
v -0.444790 -0.086500 0.568772
v -0.444790 -0.086500 0.613944
v -0.444790 -0.098291 0.568772
v -0.447382 -0.085658 0.613944
v -0.444790 -0.092396 0.568772
v -0.462933 -0.092396 0.568772
v -0.456003 -0.101934 0.568772
v -0.456003 -0.082857 0.568772
v -0.444790 -0.086500 0.568772
v -0.444790 -0.098291 0.568772
v -0.444790 -0.092396 0.568772
v -0.462933 -0.092396 0.336654
v -0.456003 -0.101934 0.336654
v -0.456003 -0.082857 0.336654
v -0.444790 -0.086500 0.336654
v -0.444790 -0.098291 0.336654
v -0.444790 -0.092396 0.336654
vn -0.6991 -0.0000 0.7150
vn -0.6991 -0.4796 -0.5303
vn -0.6989 -0.6802 0.2210
vn -0.6990 0.4795 -0.5305
vn -0.9027 -0.2689 -0.3360
vn 0.0542 -0.9095 -0.4121
vn -0.8276 -0.2643 0.4952
vn -0.8546 -0.3806 -0.3531
vn -0.5228 -0.6813 -0.5124
vn -0.4848 -0.8318 0.2703
vn 0.5379 -0.7842 0.3095
vn -0.6992 -0.0000 0.7149
vn -0.4851 0.0373 0.8737
vn -0.6989 0.6802 0.2209
vn -0.5305 0.6088 -0.5898
vn -0.9350 0.2084 -0.2868
vn -0.8581 0.2095 -0.4688
vn -0.7232 -0.0876 -0.6851
vn -0.5521 -0.8338 0.0059
vn -0.0000 -0.0000 1.0000
vn -0.9213 -0.3751 0.1029
vn -0.6992 0.6800 0.2209
vn -0.4852 0.8424 0.2344
vn -0.6530 0.7203 0.2340
vn -0.5310 0.7415 0.4102
vn -0.7041 -0.0604 -0.7075
vn -0.6620 0.4406 -0.6064
vn -0.8042 0.2221 -0.5513
vn 0.4743 -0.8769 -0.0782
vn -0.0000 0.9511 0.3090
vn -0.5308 0.7415 0.4103
vn -0.0328 0.8791 -0.4755
vn -0.3089 -0.9511 -0.0000
vn -1.0000 0.0001 -0.0000
vn 0.0002 -0.9510 0.3092
vn -0.0000 -0.5877 -0.8091
vn -0.3079 -0.9507 -0.0373
vn 0.4741 -0.8770 -0.0782
vn -0.0365 -0.9226 -0.3839
vn -0.0001 0.9510 0.3091
vn -0.3089 0.9511 -0.0000
vn -1.0000 -0.0001 -0.0000
vn -0.8090 0.5878 -0.0000
vn 0.1965 -0.1119 -0.9741
vn -0.1502 -0.5683 -0.8090
vn 0.2986 0.5998 -0.7423
vn 0.0990 0.9880 0.1185
vn -0.0000 0.9510 0.3092
vn 0.8091 0.5877 -0.0010
vn -0.3091 0.9510 -0.0000
vn 0.7545 0.1662 -0.6349
vn 0.8090 -0.5878 -0.0000
vn -0.3091 -0.9510 -0.0000
vn 0.1509 0.9800 0.1300
vn 1.0000 -0.0000 -0.0000
vn -0.0000 0.5878 -0.8090
vn 0.1548 0.2482 -0.9563
vn 0.8090 0.5878 -0.0000
vn 0.3090 0.9511 -0.0000
vn -1.0000 -0.0000 -0.0000
vn -0.8090 -0.5878 -0.0000
vn 0.3090 -0.9511 -0.0000
s 1
usemtl material_0_0.051
f 1//1 2//2 3//3
f 2//2 1//1 4//4
f 2//5 5//6 3//7
f 6//8 2//9 3//10
f 7//11 1//12 3//7
f 1//13 6//8 3//10
f 4//4 1//1 8//14
f 9//15 2//5 4//16
f 2//9 10//17 4//18
f 5//6 2//5 11//19
f 7//11 3//7 5//6
f 2//9 6//8 10//17
f 1//12 7//11 12//20
f 6//8 1//13 13//21
f 12//20 8//22 1//12
f 8//23 13//21 1//13
f 4//18 14//24 8//23
f 8//25 9//15 4//16
f 2//5 9//15 15//26
f 4//18 10//17 16//27
f 11//19 2//5 15//26
f 17//28 5//6 11//19
f 18//29 7//11 5//6
f 13//21 10//17 6//8
f 8//22 12//20 19//30
f 13//21 8//23 14//24
f 14//24 4//18 16//27
f 9//15 8//31 20//32
f 9//15 17//28 15//26
f 10//17 13//21 16//27
f 17//28 11//19 15//26
f 5//33 17//34 21//33
f 7//35 18//36 22//36
f 21//37 18//38 5//39
f 19//40 20//32 8//31
f 16//27 13//21 14//24
f 23//41 9//15 20//32
f 17//42 9//43 23//41
f 24//44 22//45 18//38
f 21//37 24//44 18//38
f 25//46 20//47 19//48
f 20//47 26//49 23//50
f 27//51 22//45 24//44
f 24//52 21//53 28//52
f 29//54 20//47 25//46
f 26//49 20//47 29//54
f 24//44 30//55 27//51
f 22//45 27//51 25//56
f 30//55 24//52 28//52
f 25//46 27//57 29//54
f 27//57 26//49 29//54
f 27//51 30//55 26//58
f 35//55 41//55 42//55 36//55
f 33//59 34//59 40//59 39//59
f 31//60 37//60 38//61 32//61
f 34//55 36//55 42//55 40//55
f 32//62 38//62 41//62 35//62
f 31//60 33//43 39//43 37//60
