# Blender 4.5.3 LTS
# www.blender.org
mtllib original-32.mtl
o BP2a_1_2/BP2a_1/mesh20/mesh20-geometry#mesh20-geometry
v 0.371597 -0.092396 0.634679
v -0.407055 -0.081494 0.626759
v -0.407055 -0.092396 0.634679
v 0.371597 -0.081494 0.626759
v 0.371597 -0.103297 0.626759
v 0.371597 -0.085658 0.613944
v -0.407055 -0.103297 0.626759
v -0.407055 -0.085658 0.613944
v 0.371597 -0.099133 0.613944
v -0.407055 -0.099133 0.613944
vn -0.0000 0.5117 0.8591
vn 0.6620 -0.1772 0.7282
vn -0.0000 0.9511 0.3090
vn 0.1778 -0.6619 0.7283
vn 0.6621 -0.7473 0.0564
vn -0.0000 0.5878 -0.8090
vn -0.6750 -0.7293 0.1118
vn 0.0005 0.5879 -0.8089
vn -0.0000 -0.5878 -0.8090
s 1
usemtl material_0_0.053
f 2//1 1//2 4//3
f 3//4 1//2 2//1
f 3//4 5//5 1//2
f 6//6 2//1 4//3
f 7//7 5//5 3//4
f 2//1 6//6 8//8
f 7//7 9//9 5//5
f 6//6 10//9 8//8
f 9//9 7//7 10//9
f 10//9 6//6 9//9
